<svg xmlns="http://www.w3.org/2000/svg" xmlns:xlink="http://www.w3.org/1999/xlink" width="400" zoomAndPan="magnify" viewBox="0 0 300 82.499998" height="110" preserveAspectRatio="xMidYMid meet" version="1.0"><defs><g/><clipPath id="f2167555f9"><path d="M 1.375 1.203125 L 79 1.203125 L 79 76 L 1.375 76 Z M 1.375 1.203125 " clip-rule="nonzero"/></clipPath><clipPath id="f6b1c22533"><path d="M 7 28 L 80.519531 28 L 80.519531 81 L 7 81 Z M 7 28 " clip-rule="nonzero"/></clipPath></defs><path fill="#4878c5" d="M 31.019531 67.515625 L 40.4375 61.5 L 40.4375 25.996094 L 31.019531 33.058594 L 31.019531 67.515625 " fill-opacity="1" fill-rule="nonzero"/><path fill="#0c2973" d="M 16.046875 61.183594 L 25.464844 69.019531 L 25.464844 34.265625 L 16.046875 41.511719 L 16.046875 61.183594 " fill-opacity="1" fill-rule="nonzero"/><path fill="#d0e4fa" d="M 45.992188 24.367188 L 45.992188 55.683594 L 55.410156 48.242188 L 55.410156 16.15625 L 45.992188 24.367188 " fill-opacity="1" fill-rule="nonzero"/><g clip-path="url(#f2167555f9)"><path fill="#0c0c0c" d="M 17.464844 67.570312 C 10.15625 61.050781 5.554688 51.5625 5.554688 40.996094 C 5.554688 21.332031 21.496094 5.390625 41.160156 5.390625 C 56.691406 5.390625 69.898438 15.335938 74.765625 29.203125 L 78.210938 26.480469 C 72.410156 11.6875 58.007812 1.210938 41.160156 1.210938 C 19.1875 1.210938 1.375 19.023438 1.375 40.996094 C 1.375 55.886719 9.554688 68.867188 21.671875 75.6875 L 17.464844 67.570312 " fill-opacity="1" fill-rule="nonzero"/></g><g clip-path="url(#f6b1c22533)"><path fill="#04134c" d="M 80.367188 28.28125 L 26.867188 70.554688 L 7.992188 46.664062 L 25.667969 80.78125 L 80.367188 28.28125 " fill-opacity="1" fill-rule="nonzero"/></g><g fill="#0c0c0c" fill-opacity="1"><g transform="translate(81.014682, 51.946905)"><g><path d="M 38.40625 -17.359375 C 38.40625 -12.023438 36.691406 -7.632812 33.265625 -4.1875 C 29.835938 -0.738281 25.453125 0.984375 20.109375 0.984375 C 14.765625 0.984375 10.378906 -0.726562 6.953125 -4.15625 C 3.523438 -7.582031 1.8125 -11.96875 1.8125 -17.3125 C 1.8125 -22.6875 3.539062 -27.097656 7 -30.546875 C 10.46875 -33.992188 14.90625 -35.71875 20.3125 -35.71875 C 25.519531 -35.71875 29.835938 -33.976562 33.265625 -30.5 C 36.691406 -27.019531 38.40625 -22.640625 38.40625 -17.359375 Z M 29.25 -17 C 29.25 -22.375 28.460938 -26.550781 26.890625 -29.53125 C 25.328125 -32.519531 23.117188 -34.015625 20.265625 -34.015625 C 17.234375 -34.015625 14.921875 -32.546875 13.328125 -29.609375 C 11.742188 -26.679688 10.953125 -22.425781 10.953125 -16.84375 C 10.953125 -11.613281 11.734375 -7.617188 13.296875 -4.859375 C 14.867188 -2.097656 17.132812 -0.71875 20.09375 -0.71875 C 23.0625 -0.71875 25.328125 -2.101562 26.890625 -4.875 C 28.460938 -7.65625 29.25 -11.695312 29.25 -17 Z M 29.25 -17 "/></g></g></g><g fill="#0c0c0c" fill-opacity="1"><g transform="translate(121.223917, 51.946905)"><g><path d="M 31.015625 -25.53125 C 31.015625 -23.53125 30.453125 -21.769531 29.328125 -20.25 C 28.210938 -18.738281 26.617188 -17.585938 24.546875 -16.796875 C 23.410156 -16.347656 22.171875 -16.054688 20.828125 -15.921875 C 19.484375 -15.785156 17.054688 -15.695312 13.546875 -15.65625 L 13.546875 -6.046875 C 13.546875 -4.148438 13.796875 -2.953125 14.296875 -2.453125 C 14.796875 -1.953125 16.0625 -1.566406 18.09375 -1.296875 L 18.09375 0 L 0.828125 0 L 0.828125 -1.296875 C 1.585938 -1.429688 2 -1.5 2.0625 -1.5 C 3.269531 -1.632812 4.085938 -2.019531 4.515625 -2.65625 C 4.953125 -3.300781 5.171875 -4.429688 5.171875 -6.046875 L 5.171875 -28.890625 C 5.171875 -30.710938 4.894531 -31.925781 4.34375 -32.53125 C 3.789062 -33.132812 2.617188 -33.507812 0.828125 -33.65625 L 0.828125 -34.9375 L 17.46875 -34.9375 C 21.78125 -34.9375 25.113281 -34.117188 27.46875 -32.484375 C 29.832031 -30.847656 31.015625 -28.53125 31.015625 -25.53125 Z M 22.125 -25.28125 C 22.125 -28.070312 21.65625 -30.078125 20.71875 -31.296875 C 19.789062 -32.515625 18.257812 -33.125 16.125 -33.125 C 14.40625 -33.125 13.546875 -32.523438 13.546875 -31.328125 L 13.546875 -17.46875 C 16.847656 -17.46875 19.050781 -17.929688 20.15625 -18.859375 C 21.46875 -20.035156 22.125 -22.175781 22.125 -25.28125 Z M 22.125 -25.28125 "/></g></g></g><g fill="#0c0c0c" fill-opacity="1"><g transform="translate(152.80212, 51.946905)"><g><path d="M 32.875 -24.546875 L 31.375 -24.546875 C 30.925781 -27.617188 29.953125 -29.816406 28.453125 -31.140625 C 26.953125 -32.460938 24.617188 -33.175781 21.453125 -33.28125 L 21.453125 -6.046875 C 21.453125 -4.078125 21.734375 -2.832031 22.296875 -2.3125 C 22.867188 -1.800781 24.273438 -1.460938 26.515625 -1.296875 L 26.515625 0 L 8.0625 0 L 8.0625 -1.296875 C 10.269531 -1.460938 11.65625 -1.8125 12.21875 -2.34375 C 12.789062 -2.882812 13.078125 -4.117188 13.078125 -6.046875 L 13.078125 -33.28125 C 9.867188 -33.175781 7.515625 -32.460938 6.015625 -31.140625 C 4.515625 -29.816406 3.539062 -27.617188 3.09375 -24.546875 L 1.609375 -24.546875 L 1.75 -34.9375 L 32.765625 -34.9375 Z M 32.875 -24.546875 "/></g></g></g><g fill="#0c0c0c" fill-opacity="1"><g transform="translate(187.27456, 51.946905)"><g><path d="M 19.125 0 L 1.03125 0 L 1.03125 -1.296875 C 2.957031 -1.460938 4.238281 -1.785156 4.875 -2.265625 C 5.519531 -2.753906 5.84375 -3.65625 5.84375 -4.96875 L 5.84375 -29.984375 C 5.84375 -31.285156 5.503906 -32.1875 4.828125 -32.6875 C 4.160156 -33.1875 2.894531 -33.507812 1.03125 -33.65625 L 1.03125 -34.9375 L 19.125 -34.9375 L 19.125 -33.65625 C 17.226562 -33.582031 15.9375 -33.285156 15.25 -32.765625 C 14.5625 -32.253906 14.21875 -31.328125 14.21875 -29.984375 L 14.21875 -4.96875 C 14.21875 -3.625 14.539062 -2.707031 15.1875 -2.21875 C 15.84375 -1.738281 17.15625 -1.429688 19.125 -1.296875 Z M 19.125 0 "/></g></g></g><g fill="#0c0c0c" fill-opacity="1"><g transform="translate(207.379172, 51.946905)"><g><path d="M 47.609375 0 L 30.4375 0 L 30.4375 -1.296875 C 32.375 -1.460938 33.625 -1.785156 34.1875 -2.265625 C 34.757812 -2.753906 35.046875 -3.722656 35.046875 -5.171875 L 35.046875 -31.484375 L 22.015625 0 L 20.625 0 L 7.59375 -30.703125 L 7.59375 -6.40625 C 7.59375 -4.476562 7.9375 -3.175781 8.625 -2.5 C 9.320312 -1.832031 10.71875 -1.429688 12.8125 -1.296875 L 12.8125 0 L 0.71875 0 L 0.71875 -1.296875 C 2.71875 -1.503906 4 -1.851562 4.5625 -2.34375 C 5.132812 -2.84375 5.421875 -3.867188 5.421875 -5.421875 L 5.421875 -29.984375 C 5.421875 -31.328125 5.128906 -32.238281 4.546875 -32.71875 C 3.960938 -33.195312 2.722656 -33.507812 0.828125 -33.65625 L 0.828125 -34.9375 L 13.90625 -34.9375 L 24.234375 -10.546875 L 34.578125 -34.9375 L 47.609375 -34.9375 L 47.609375 -33.65625 C 45.710938 -33.507812 44.476562 -33.144531 43.90625 -32.5625 C 43.34375 -31.976562 43.0625 -30.753906 43.0625 -28.890625 L 43.0625 -6.046875 C 43.0625 -4.222656 43.316406 -3.035156 43.828125 -2.484375 C 44.347656 -1.929688 45.609375 -1.535156 47.609375 -1.296875 Z M 47.609375 0 "/></g></g></g><g fill="#0c0c0c" fill-opacity="1"><g transform="translate(256.167751, 51.946905)"><g><path d="M 35.609375 0 L 18.859375 0 L 18.859375 -1.296875 L 20.515625 -1.453125 C 21.410156 -1.484375 22.046875 -1.628906 22.421875 -1.890625 C 22.804688 -2.148438 23 -2.570312 23 -3.15625 C 23 -4.15625 22.207031 -6.5 20.625 -10.1875 L 9 -10.1875 L 8.21875 -8.109375 C 7.21875 -5.628906 6.71875 -4.0625 6.71875 -3.40625 C 6.71875 -2.75 7.046875 -2.257812 7.703125 -1.9375 C 8.359375 -1.613281 9.441406 -1.398438 10.953125 -1.296875 L 10.953125 0 L 0.46875 0 L 0.46875 -1.296875 C 1.707031 -1.535156 2.617188 -2 3.203125 -2.6875 C 3.785156 -3.375 4.5625 -4.925781 5.53125 -7.34375 L 17 -35.671875 L 18.453125 -35.671875 L 29.984375 -8.484375 C 31.359375 -5.242188 32.351562 -3.234375 32.96875 -2.453125 C 33.59375 -1.679688 34.472656 -1.296875 35.609375 -1.296875 Z M 19.84375 -12.203125 L 14.625 -24.765625 L 9.765625 -12.203125 Z M 19.84375 -12.203125 "/></g></g></g><g fill="#0c0c0c" fill-opacity="1"><g transform="translate(85.175599, 76.827251)"><g><path d="M 8.359375 -2.78125 L 8.75 -2.78125 C 8.800781 -2.5 8.847656 -2.140625 8.890625 -1.703125 C 8.929688 -1.265625 8.941406 -0.84375 8.921875 -0.4375 C 8.765625 -0.320312 8.578125 -0.222656 8.359375 -0.140625 C 8.148438 -0.0664062 7.925781 -0.00390625 7.6875 0.046875 C 7.445312 0.0976562 7.203125 0.132812 6.953125 0.15625 C 6.710938 0.175781 6.476562 0.1875 6.25 0.1875 C 5.394531 0.1875 4.628906 0.078125 3.953125 -0.140625 C 3.285156 -0.359375 2.71875 -0.691406 2.25 -1.140625 C 1.789062 -1.585938 1.4375 -2.160156 1.1875 -2.859375 C 0.9375 -3.554688 0.8125 -4.382812 0.8125 -5.34375 C 0.8125 -6.34375 0.945312 -7.191406 1.21875 -7.890625 C 1.5 -8.585938 1.875 -9.15625 2.34375 -9.59375 C 2.8125 -10.039062 3.351562 -10.363281 3.96875 -10.5625 C 4.59375 -10.769531 5.242188 -10.875 5.921875 -10.875 C 6.597656 -10.875 7.164062 -10.832031 7.625 -10.75 C 8.082031 -10.664062 8.484375 -10.535156 8.828125 -10.359375 C 8.828125 -10.191406 8.820312 -10 8.8125 -9.78125 C 8.800781 -9.5625 8.785156 -9.328125 8.765625 -9.078125 C 8.742188 -8.835938 8.71875 -8.597656 8.6875 -8.359375 C 8.664062 -8.128906 8.640625 -7.921875 8.609375 -7.734375 L 8.203125 -7.734375 L 7.40625 -9.9375 C 7.300781 -10 7.117188 -10.035156 6.859375 -10.046875 C 6.597656 -10.066406 6.335938 -10.078125 6.078125 -10.078125 C 5.566406 -10.078125 5.082031 -9.984375 4.625 -9.796875 C 4.175781 -9.609375 3.78125 -9.316406 3.4375 -8.921875 C 3.101562 -8.535156 2.832031 -8.046875 2.625 -7.453125 C 2.425781 -6.859375 2.328125 -6.15625 2.328125 -5.34375 C 2.328125 -4.625 2.414062 -3.96875 2.59375 -3.375 C 2.78125 -2.789062 3.046875 -2.289062 3.390625 -1.875 C 3.734375 -1.46875 4.15625 -1.15625 4.65625 -0.9375 C 5.15625 -0.71875 5.722656 -0.609375 6.359375 -0.609375 C 6.691406 -0.609375 6.96875 -0.632812 7.1875 -0.6875 C 7.414062 -0.738281 7.566406 -0.804688 7.640625 -0.890625 Z M 8.359375 -2.78125 "/></g></g></g><g fill="#0c0c0c" fill-opacity="1"><g transform="translate(96.109962, 76.827251)"><g><path d="M 0.625 -3.8125 C 0.625 -4.457031 0.707031 -5.023438 0.875 -5.515625 C 1.039062 -6.015625 1.28125 -6.4375 1.59375 -6.78125 C 1.914062 -7.125 2.296875 -7.382812 2.734375 -7.5625 C 3.179688 -7.738281 3.675781 -7.828125 4.21875 -7.828125 C 4.851562 -7.828125 5.398438 -7.726562 5.859375 -7.53125 C 6.316406 -7.34375 6.6875 -7.070312 6.96875 -6.71875 C 7.257812 -6.363281 7.472656 -5.941406 7.609375 -5.453125 C 7.753906 -4.960938 7.828125 -4.414062 7.828125 -3.8125 C 7.828125 -2.53125 7.5 -1.539062 6.84375 -0.84375 C 6.195312 -0.15625 5.320312 0.1875 4.21875 0.1875 C 3.601562 0.1875 3.070312 0.09375 2.625 -0.09375 C 2.175781 -0.28125 1.800781 -0.550781 1.5 -0.90625 C 1.207031 -1.257812 0.988281 -1.679688 0.84375 -2.171875 C 0.695312 -2.671875 0.625 -3.21875 0.625 -3.8125 Z M 2.09375 -3.8125 C 2.09375 -3.351562 2.132812 -2.921875 2.21875 -2.515625 C 2.3125 -2.109375 2.453125 -1.753906 2.640625 -1.453125 C 2.828125 -1.160156 3.070312 -0.925781 3.375 -0.75 C 3.675781 -0.570312 4.046875 -0.484375 4.484375 -0.484375 C 5.023438 -0.484375 5.472656 -0.753906 5.828125 -1.296875 C 6.179688 -1.835938 6.359375 -2.675781 6.359375 -3.8125 C 6.359375 -4.28125 6.3125 -4.71875 6.21875 -5.125 C 6.132812 -5.53125 6 -5.878906 5.8125 -6.171875 C 5.632812 -6.472656 5.398438 -6.710938 5.109375 -6.890625 C 4.828125 -7.066406 4.488281 -7.15625 4.09375 -7.15625 C 3.488281 -7.15625 3.003906 -6.882812 2.640625 -6.34375 C 2.273438 -5.800781 2.09375 -4.957031 2.09375 -3.8125 Z M 2.09375 -3.8125 "/></g></g></g><g fill="#0c0c0c" fill-opacity="1"><g transform="translate(105.654681, 76.827251)"><g><path d="M 8.8125 0 L 5.53125 0 L 5.53125 -0.375 C 5.800781 -0.519531 6.101562 -0.644531 6.4375 -0.75 L 6.4375 -4.375 C 6.4375 -5.144531 6.320312 -5.753906 6.09375 -6.203125 C 5.875 -6.648438 5.46875 -6.875 4.875 -6.875 C 4.625 -6.875 4.382812 -6.828125 4.15625 -6.734375 C 3.9375 -6.640625 3.742188 -6.515625 3.578125 -6.359375 C 3.410156 -6.203125 3.265625 -6.023438 3.140625 -5.828125 C 3.023438 -5.628906 2.929688 -5.421875 2.859375 -5.203125 L 2.859375 -0.75 C 3.171875 -0.6875 3.476562 -0.5625 3.78125 -0.375 L 3.78125 0 L 0.46875 0 L 0.46875 -0.375 C 0.726562 -0.507812 1.066406 -0.632812 1.484375 -0.75 L 1.484375 -6.75 L 0.46875 -6.875 L 0.46875 -7.28125 C 0.738281 -7.382812 1.046875 -7.484375 1.390625 -7.578125 C 1.734375 -7.671875 2.09375 -7.753906 2.46875 -7.828125 L 2.859375 -7.828125 L 2.859375 -6.109375 L 2.875 -6.109375 C 3.082031 -6.578125 3.390625 -6.976562 3.796875 -7.3125 C 4.203125 -7.65625 4.6875 -7.828125 5.25 -7.828125 C 5.664062 -7.828125 6.03125 -7.773438 6.34375 -7.671875 C 6.664062 -7.578125 6.929688 -7.40625 7.140625 -7.15625 C 7.359375 -6.914062 7.523438 -6.585938 7.640625 -6.171875 C 7.753906 -5.765625 7.8125 -5.242188 7.8125 -4.609375 L 7.8125 -0.75 C 8.21875 -0.675781 8.550781 -0.550781 8.8125 -0.375 Z M 8.8125 0 "/></g></g></g><g fill="#0c0c0c" fill-opacity="1"><g transform="translate(115.825499, 76.827251)"><g><path d="M 4.515625 -1.734375 C 4.515625 -2.023438 4.421875 -2.269531 4.234375 -2.46875 C 4.054688 -2.664062 3.828125 -2.847656 3.546875 -3.015625 C 3.273438 -3.191406 2.984375 -3.363281 2.671875 -3.53125 C 2.367188 -3.695312 2.078125 -3.890625 1.796875 -4.109375 C 1.523438 -4.328125 1.300781 -4.578125 1.125 -4.859375 C 0.945312 -5.140625 0.859375 -5.488281 0.859375 -5.90625 C 0.859375 -6.1875 0.921875 -6.441406 1.046875 -6.671875 C 1.171875 -6.910156 1.335938 -7.113281 1.546875 -7.28125 C 1.765625 -7.445312 2.015625 -7.578125 2.296875 -7.671875 C 2.585938 -7.773438 2.894531 -7.828125 3.21875 -7.828125 C 3.769531 -7.828125 4.222656 -7.796875 4.578125 -7.734375 C 4.929688 -7.671875 5.269531 -7.582031 5.59375 -7.46875 C 5.550781 -7.144531 5.5 -6.816406 5.4375 -6.484375 C 5.382812 -6.148438 5.304688 -5.8125 5.203125 -5.46875 L 4.828125 -5.46875 L 4.25 -7.03125 C 4.125 -7.082031 3.984375 -7.113281 3.828125 -7.125 C 3.679688 -7.144531 3.523438 -7.15625 3.359375 -7.15625 C 3.179688 -7.15625 3.019531 -7.117188 2.875 -7.046875 C 2.738281 -6.984375 2.625 -6.898438 2.53125 -6.796875 C 2.4375 -6.691406 2.363281 -6.570312 2.3125 -6.4375 C 2.257812 -6.3125 2.234375 -6.179688 2.234375 -6.046875 C 2.234375 -5.773438 2.320312 -5.539062 2.5 -5.34375 C 2.675781 -5.144531 2.898438 -4.957031 3.171875 -4.78125 C 3.453125 -4.613281 3.742188 -4.445312 4.046875 -4.28125 C 4.359375 -4.125 4.648438 -3.941406 4.921875 -3.734375 C 5.203125 -3.535156 5.429688 -3.300781 5.609375 -3.03125 C 5.796875 -2.757812 5.890625 -2.4375 5.890625 -2.0625 C 5.890625 -1.71875 5.8125 -1.40625 5.65625 -1.125 C 5.507812 -0.851562 5.304688 -0.617188 5.046875 -0.421875 C 4.785156 -0.234375 4.484375 -0.0859375 4.140625 0.015625 C 3.804688 0.128906 3.445312 0.1875 3.0625 0.1875 C 2.625 0.1875 2.21875 0.144531 1.84375 0.0625 C 1.476562 -0.0078125 1.097656 -0.117188 0.703125 -0.265625 C 0.722656 -0.628906 0.769531 -0.976562 0.84375 -1.3125 C 0.914062 -1.65625 1.003906 -1.988281 1.109375 -2.3125 L 1.5 -2.3125 L 2.171875 -0.640625 C 2.285156 -0.554688 2.421875 -0.507812 2.578125 -0.5 C 2.734375 -0.488281 2.878906 -0.484375 3.015625 -0.484375 C 3.460938 -0.484375 3.820312 -0.601562 4.09375 -0.84375 C 4.375 -1.09375 4.515625 -1.390625 4.515625 -1.734375 Z M 4.515625 -1.734375 "/></g></g></g><g fill="#0c0c0c" fill-opacity="1"><g transform="translate(123.537726, 76.827251)"><g><path d="M 1.171875 -3.03125 C 1.171875 -3.664062 1.1875 -4.289062 1.21875 -4.90625 C 1.25 -5.53125 1.265625 -6.144531 1.265625 -6.75 L 0.265625 -6.875 L 0.265625 -7.28125 C 0.585938 -7.394531 0.914062 -7.5 1.25 -7.59375 C 1.59375 -7.6875 1.929688 -7.765625 2.265625 -7.828125 L 2.640625 -7.828125 C 2.640625 -7.054688 2.625 -6.296875 2.59375 -5.546875 C 2.5625 -4.796875 2.546875 -4.046875 2.546875 -3.296875 C 2.546875 -2.898438 2.566406 -2.539062 2.609375 -2.21875 C 2.660156 -1.90625 2.742188 -1.640625 2.859375 -1.421875 C 2.984375 -1.210938 3.144531 -1.050781 3.34375 -0.9375 C 3.550781 -0.820312 3.8125 -0.765625 4.125 -0.765625 C 4.582031 -0.765625 4.96875 -0.925781 5.28125 -1.25 C 5.59375 -1.582031 5.832031 -2.015625 6 -2.546875 L 6 -6.75 L 5.015625 -6.875 L 5.015625 -7.28125 C 5.328125 -7.394531 5.65625 -7.5 6 -7.59375 C 6.34375 -7.6875 6.675781 -7.765625 7 -7.828125 L 7.375 -7.828125 L 7.375 -0.875 L 8.390625 -0.75 L 8.390625 -0.421875 C 8.097656 -0.296875 7.800781 -0.179688 7.5 -0.078125 C 7.195312 0.0234375 6.882812 0.101562 6.5625 0.15625 L 6.171875 0.15625 L 6.0625 -1.671875 L 6 -1.671875 C 5.945312 -1.453125 5.859375 -1.234375 5.734375 -1.015625 C 5.609375 -0.796875 5.441406 -0.597656 5.234375 -0.421875 C 5.035156 -0.242188 4.804688 -0.0976562 4.546875 0.015625 C 4.285156 0.128906 4.003906 0.1875 3.703125 0.1875 C 3.296875 0.1875 2.9375 0.132812 2.625 0.03125 C 2.3125 -0.0625 2.046875 -0.226562 1.828125 -0.46875 C 1.617188 -0.71875 1.457031 -1.046875 1.34375 -1.453125 C 1.226562 -1.867188 1.171875 -2.394531 1.171875 -3.03125 Z M 1.171875 -3.03125 "/></g></g></g><g fill="#0c0c0c" fill-opacity="1"><g transform="translate(133.403132, 76.827251)"><g><path d="M 4.015625 0 L 0.625 0 L 0.625 -0.375 C 0.957031 -0.539062 1.296875 -0.664062 1.640625 -0.75 L 1.640625 -10.421875 L 0.46875 -10.546875 L 0.46875 -10.9375 C 0.738281 -11.0625 1.070312 -11.171875 1.46875 -11.265625 C 1.863281 -11.359375 2.25 -11.429688 2.625 -11.484375 L 3.015625 -11.484375 L 3.015625 -0.75 C 3.347656 -0.664062 3.679688 -0.539062 4.015625 -0.375 Z M 4.015625 0 "/></g></g></g><g fill="#0c0c0c" fill-opacity="1"><g transform="translate(139.099614, 76.827251)"><g><path d="M 0.234375 -7.28125 C 0.617188 -7.519531 1.023438 -7.691406 1.453125 -7.796875 L 1.453125 -9.09375 C 1.585938 -9.207031 1.742188 -9.304688 1.921875 -9.390625 C 2.097656 -9.472656 2.269531 -9.554688 2.4375 -9.640625 L 2.828125 -9.640625 L 2.828125 -7.640625 L 5.125 -7.640625 L 5.125 -6.875 L 2.828125 -6.875 L 2.828125 -2.4375 C 2.828125 -1.832031 2.921875 -1.398438 3.109375 -1.140625 C 3.304688 -0.890625 3.597656 -0.765625 3.984375 -0.765625 C 4.171875 -0.765625 4.398438 -0.773438 4.671875 -0.796875 C 4.953125 -0.828125 5.1875 -0.878906 5.375 -0.953125 L 5.484375 -0.71875 C 5.398438 -0.625 5.285156 -0.523438 5.140625 -0.421875 C 4.992188 -0.328125 4.828125 -0.234375 4.640625 -0.140625 C 4.453125 -0.046875 4.242188 0.03125 4.015625 0.09375 C 3.796875 0.15625 3.566406 0.1875 3.328125 0.1875 C 2.722656 0.1875 2.257812 0.015625 1.9375 -0.328125 C 1.613281 -0.679688 1.453125 -1.242188 1.453125 -2.015625 L 1.453125 -6.875 L 0.234375 -6.875 Z M 0.234375 -7.28125 "/></g></g></g><g fill="#0c0c0c" fill-opacity="1"><g transform="translate(145.865053, 76.827251)"><g><path d="M 4.015625 0 L 0.625 0 L 0.625 -0.375 C 0.78125 -0.457031 0.9375 -0.523438 1.09375 -0.578125 C 1.257812 -0.640625 1.441406 -0.695312 1.640625 -0.75 L 1.640625 -6.75 L 0.625 -6.875 L 0.625 -7.28125 C 0.914062 -7.394531 1.234375 -7.5 1.578125 -7.59375 C 1.929688 -7.6875 2.28125 -7.765625 2.625 -7.828125 L 3.015625 -7.828125 L 3.015625 -0.75 C 3.210938 -0.695312 3.394531 -0.640625 3.5625 -0.578125 C 3.726562 -0.523438 3.878906 -0.457031 4.015625 -0.375 Z M 1.34375 -10.234375 C 1.34375 -10.515625 1.429688 -10.734375 1.609375 -10.890625 C 1.785156 -11.054688 2.019531 -11.140625 2.3125 -11.140625 C 2.613281 -11.140625 2.847656 -11.054688 3.015625 -10.890625 C 3.191406 -10.734375 3.28125 -10.515625 3.28125 -10.234375 C 3.28125 -9.960938 3.191406 -9.75 3.015625 -9.59375 C 2.847656 -9.4375 2.613281 -9.359375 2.3125 -9.359375 C 2.019531 -9.359375 1.785156 -9.4375 1.609375 -9.59375 C 1.429688 -9.75 1.34375 -9.960938 1.34375 -10.234375 Z M 1.34375 -10.234375 "/></g></g></g><g fill="#0c0c0c" fill-opacity="1"><g transform="translate(151.561536, 76.827251)"><g><path d="M 8.8125 0 L 5.53125 0 L 5.53125 -0.375 C 5.800781 -0.519531 6.101562 -0.644531 6.4375 -0.75 L 6.4375 -4.375 C 6.4375 -5.144531 6.320312 -5.753906 6.09375 -6.203125 C 5.875 -6.648438 5.46875 -6.875 4.875 -6.875 C 4.625 -6.875 4.382812 -6.828125 4.15625 -6.734375 C 3.9375 -6.640625 3.742188 -6.515625 3.578125 -6.359375 C 3.410156 -6.203125 3.265625 -6.023438 3.140625 -5.828125 C 3.023438 -5.628906 2.929688 -5.421875 2.859375 -5.203125 L 2.859375 -0.75 C 3.171875 -0.6875 3.476562 -0.5625 3.78125 -0.375 L 3.78125 0 L 0.46875 0 L 0.46875 -0.375 C 0.726562 -0.507812 1.066406 -0.632812 1.484375 -0.75 L 1.484375 -6.75 L 0.46875 -6.875 L 0.46875 -7.28125 C 0.738281 -7.382812 1.046875 -7.484375 1.390625 -7.578125 C 1.734375 -7.671875 2.09375 -7.753906 2.46875 -7.828125 L 2.859375 -7.828125 L 2.859375 -6.109375 L 2.875 -6.109375 C 3.082031 -6.578125 3.390625 -6.976562 3.796875 -7.3125 C 4.203125 -7.65625 4.6875 -7.828125 5.25 -7.828125 C 5.664062 -7.828125 6.03125 -7.773438 6.34375 -7.671875 C 6.664062 -7.578125 6.929688 -7.40625 7.140625 -7.15625 C 7.359375 -6.914062 7.523438 -6.585938 7.640625 -6.171875 C 7.753906 -5.765625 7.8125 -5.242188 7.8125 -4.609375 L 7.8125 -0.75 C 8.21875 -0.675781 8.550781 -0.550781 8.8125 -0.375 Z M 8.8125 0 "/></g></g></g><g fill="#0c0c0c" fill-opacity="1"><g transform="translate(161.732354, 76.827251)"><g><path d="M 3.78125 -7.828125 C 4.320312 -7.828125 4.78125 -7.769531 5.15625 -7.65625 C 5.539062 -7.550781 5.859375 -7.390625 6.109375 -7.171875 C 6.710938 -7.578125 7.335938 -7.867188 7.984375 -8.046875 C 8.066406 -7.941406 8.125 -7.804688 8.15625 -7.640625 C 8.195312 -7.472656 8.21875 -7.320312 8.21875 -7.1875 L 8.015625 -6.8125 L 6.421875 -6.8125 C 6.671875 -6.445312 6.796875 -5.960938 6.796875 -5.359375 C 6.796875 -4.628906 6.535156 -4.035156 6.015625 -3.578125 C 5.503906 -3.117188 4.757812 -2.890625 3.78125 -2.890625 C 3.582031 -2.890625 3.421875 -2.894531 3.296875 -2.90625 C 3.179688 -2.914062 3.046875 -2.929688 2.890625 -2.953125 C 2.835938 -2.859375 2.773438 -2.753906 2.703125 -2.640625 C 2.640625 -2.523438 2.609375 -2.410156 2.609375 -2.296875 C 2.609375 -2.085938 2.722656 -1.925781 2.953125 -1.8125 C 3.191406 -1.695312 3.488281 -1.59375 3.84375 -1.5 C 4.195312 -1.40625 4.578125 -1.304688 4.984375 -1.203125 C 5.398438 -1.109375 5.785156 -0.976562 6.140625 -0.8125 C 6.492188 -0.644531 6.789062 -0.425781 7.03125 -0.15625 C 7.269531 0.113281 7.394531 0.460938 7.40625 0.890625 C 7.414062 1.253906 7.332031 1.582031 7.15625 1.875 C 6.976562 2.175781 6.726562 2.425781 6.40625 2.625 C 6.09375 2.820312 5.710938 2.972656 5.265625 3.078125 C 4.828125 3.179688 4.34375 3.234375 3.8125 3.234375 C 2.707031 3.234375 1.867188 3.046875 1.296875 2.671875 C 0.734375 2.296875 0.453125 1.820312 0.453125 1.25 C 0.453125 0.976562 0.492188 0.738281 0.578125 0.53125 C 0.671875 0.332031 0.796875 0.15625 0.953125 0 C 1.117188 -0.15625 1.320312 -0.289062 1.5625 -0.40625 C 1.8125 -0.519531 2.097656 -0.628906 2.421875 -0.734375 C 2.191406 -0.835938 2.003906 -0.976562 1.859375 -1.15625 C 1.710938 -1.332031 1.640625 -1.546875 1.640625 -1.796875 C 1.640625 -2.035156 1.738281 -2.269531 1.9375 -2.5 C 2.132812 -2.726562 2.332031 -2.910156 2.53125 -3.046875 C 1.957031 -3.191406 1.515625 -3.476562 1.203125 -3.90625 C 0.890625 -4.332031 0.734375 -4.816406 0.734375 -5.359375 C 0.734375 -5.710938 0.796875 -6.035156 0.921875 -6.328125 C 1.054688 -6.628906 1.25 -6.890625 1.5 -7.109375 C 1.757812 -7.335938 2.078125 -7.515625 2.453125 -7.640625 C 2.835938 -7.765625 3.28125 -7.828125 3.78125 -7.828125 Z M 6.03125 1.234375 C 6.03125 0.910156 5.921875 0.648438 5.703125 0.453125 C 5.484375 0.265625 5.210938 0.109375 4.890625 -0.015625 C 4.566406 -0.140625 4.210938 -0.238281 3.828125 -0.3125 C 3.453125 -0.394531 3.101562 -0.488281 2.78125 -0.59375 C 2.394531 -0.363281 2.140625 -0.117188 2.015625 0.140625 C 1.890625 0.398438 1.828125 0.671875 1.828125 0.953125 C 1.828125 1.484375 2.019531 1.882812 2.40625 2.15625 C 2.800781 2.425781 3.363281 2.5625 4.09375 2.5625 C 4.46875 2.5625 4.78125 2.523438 5.03125 2.453125 C 5.28125 2.390625 5.476562 2.296875 5.625 2.171875 C 5.78125 2.054688 5.882812 1.914062 5.9375 1.75 C 6 1.59375 6.03125 1.421875 6.03125 1.234375 Z M 2.109375 -5.359375 C 2.109375 -5.117188 2.132812 -4.890625 2.1875 -4.671875 C 2.25 -4.453125 2.34375 -4.257812 2.46875 -4.09375 C 2.59375 -3.925781 2.757812 -3.796875 2.96875 -3.703125 C 3.1875 -3.609375 3.457031 -3.5625 3.78125 -3.5625 C 4.363281 -3.5625 4.78125 -3.734375 5.03125 -4.078125 C 5.289062 -4.421875 5.421875 -4.847656 5.421875 -5.359375 C 5.421875 -5.910156 5.296875 -6.347656 5.046875 -6.671875 C 4.796875 -6.992188 4.375 -7.15625 3.78125 -7.15625 C 3.15625 -7.15625 2.71875 -7 2.46875 -6.6875 C 2.226562 -6.375 2.109375 -5.929688 2.109375 -5.359375 Z M 2.109375 -5.359375 "/></g></g></g><g fill="#0c0c0c" fill-opacity="1"><g transform="translate(170.864768, 76.827251)"><g/></g></g><g fill="#0c0c0c" fill-opacity="1"><g transform="translate(175.675547, 76.827251)"><g><path d="M 8.25 -1.875 C 7.945312 -2.15625 7.613281 -2.476562 7.25 -2.84375 C 6.882812 -3.21875 6.535156 -3.597656 6.203125 -3.984375 C 5.867188 -4.367188 5.554688 -4.738281 5.265625 -5.09375 C 4.984375 -5.457031 4.757812 -5.753906 4.59375 -5.984375 C 4.15625 -5.554688 3.835938 -5.140625 3.640625 -4.734375 C 3.453125 -4.335938 3.359375 -3.867188 3.359375 -3.328125 C 3.359375 -2.941406 3.421875 -2.582031 3.546875 -2.25 C 3.679688 -1.914062 3.859375 -1.628906 4.078125 -1.390625 C 4.304688 -1.148438 4.578125 -0.957031 4.890625 -0.8125 C 5.203125 -0.675781 5.539062 -0.609375 5.90625 -0.609375 C 6.363281 -0.609375 6.789062 -0.710938 7.1875 -0.921875 C 7.59375 -1.128906 7.945312 -1.445312 8.25 -1.875 Z M 4.3125 -8.90625 C 4.3125 -8.726562 4.34375 -8.53125 4.40625 -8.3125 C 4.476562 -8.101562 4.570312 -7.894531 4.6875 -7.6875 C 4.8125 -7.488281 4.941406 -7.289062 5.078125 -7.09375 C 5.210938 -6.90625 5.347656 -6.738281 5.484375 -6.59375 C 5.847656 -6.894531 6.144531 -7.242188 6.375 -7.640625 C 6.601562 -8.046875 6.691406 -8.523438 6.640625 -9.078125 C 6.617188 -9.398438 6.515625 -9.671875 6.328125 -9.890625 C 6.148438 -10.117188 5.863281 -10.234375 5.46875 -10.234375 C 5.25 -10.234375 5.0625 -10.195312 4.90625 -10.125 C 4.757812 -10.050781 4.640625 -9.945312 4.546875 -9.8125 C 4.460938 -9.6875 4.398438 -9.546875 4.359375 -9.390625 C 4.328125 -9.234375 4.3125 -9.070312 4.3125 -8.90625 Z M 10.65625 0 C 10.4375 -0.144531 10.164062 -0.320312 9.84375 -0.53125 C 9.519531 -0.738281 9.160156 -1.03125 8.765625 -1.40625 C 8.628906 -1.207031 8.453125 -1.015625 8.234375 -0.828125 C 8.023438 -0.640625 7.773438 -0.46875 7.484375 -0.3125 C 7.191406 -0.164062 6.863281 -0.046875 6.5 0.046875 C 6.144531 0.140625 5.757812 0.1875 5.34375 0.1875 C 4.800781 0.1875 4.3125 0.101562 3.875 -0.0625 C 3.4375 -0.226562 3.066406 -0.445312 2.765625 -0.71875 C 2.460938 -0.988281 2.222656 -1.300781 2.046875 -1.65625 C 1.878906 -2.019531 1.796875 -2.394531 1.796875 -2.78125 C 1.796875 -3.28125 1.890625 -3.726562 2.078125 -4.125 C 2.265625 -4.53125 2.484375 -4.882812 2.734375 -5.1875 C 2.992188 -5.488281 3.257812 -5.742188 3.53125 -5.953125 C 3.800781 -6.160156 4.03125 -6.332031 4.21875 -6.46875 C 3.925781 -6.789062 3.675781 -7.171875 3.46875 -7.609375 C 3.257812 -8.046875 3.15625 -8.453125 3.15625 -8.828125 C 3.15625 -9.085938 3.207031 -9.34375 3.3125 -9.59375 C 3.414062 -9.84375 3.566406 -10.0625 3.765625 -10.25 C 3.960938 -10.4375 4.207031 -10.585938 4.5 -10.703125 C 4.789062 -10.816406 5.117188 -10.875 5.484375 -10.875 C 6.160156 -10.875 6.703125 -10.726562 7.109375 -10.4375 C 7.523438 -10.15625 7.734375 -9.738281 7.734375 -9.1875 C 7.734375 -8.851562 7.671875 -8.539062 7.546875 -8.25 C 7.429688 -7.957031 7.28125 -7.6875 7.09375 -7.4375 C 6.914062 -7.195312 6.710938 -6.972656 6.484375 -6.765625 C 6.253906 -6.566406 6.03125 -6.378906 5.8125 -6.203125 C 6.226562 -5.679688 6.707031 -5.144531 7.25 -4.59375 C 7.800781 -4.050781 8.382812 -3.503906 9 -2.953125 C 9.082031 -3.066406 9.179688 -3.253906 9.296875 -3.515625 C 9.421875 -3.773438 9.535156 -4.082031 9.640625 -4.4375 C 9.753906 -4.800781 9.84375 -5.191406 9.90625 -5.609375 C 9.976562 -6.035156 10 -6.457031 9.96875 -6.875 C 9.65625 -6.9375 9.351562 -7.0625 9.0625 -7.25 L 9.0625 -7.640625 L 12.15625 -7.640625 L 12.15625 -7.25 C 11.882812 -7.070312 11.550781 -6.945312 11.15625 -6.875 C 11.0625 -6.269531 10.941406 -5.722656 10.796875 -5.234375 C 10.660156 -4.753906 10.515625 -4.328125 10.359375 -3.953125 C 10.203125 -3.578125 10.054688 -3.257812 9.921875 -3 C 9.785156 -2.738281 9.675781 -2.550781 9.59375 -2.4375 C 9.976562 -2.113281 10.359375 -1.816406 10.734375 -1.546875 C 11.109375 -1.273438 11.523438 -1.007812 11.984375 -0.75 L 12.828125 -0.375 L 12.828125 0 Z M 10.65625 0 "/></g></g></g><g fill="#0c0c0c" fill-opacity="1"><g transform="translate(190.045832, 76.827251)"><g/></g></g><g fill="#0c0c0c" fill-opacity="1"><g transform="translate(194.856611, 76.827251)"><g><path d="M 12.796875 0 L 9 0 L 9 -0.4375 C 9.207031 -0.519531 9.410156 -0.585938 9.609375 -0.640625 C 9.816406 -0.703125 10.023438 -0.757812 10.234375 -0.8125 L 10.234375 -7.6875 L 10.296875 -9.46875 L 10.171875 -9.46875 L 9.671875 -7.84375 L 6.546875 0 L 6.140625 0 L 3.15625 -7.84375 L 2.609375 -9.625 L 2.46875 -9.625 L 2.484375 -7.6875 L 2.484375 -0.8125 C 2.679688 -0.769531 2.875 -0.71875 3.0625 -0.65625 C 3.257812 -0.59375 3.457031 -0.519531 3.65625 -0.4375 L 3.65625 0 L 0.453125 0 L 0.453125 -0.4375 C 0.648438 -0.519531 0.851562 -0.59375 1.0625 -0.65625 C 1.269531 -0.726562 1.484375 -0.785156 1.703125 -0.828125 L 1.703125 -9.875 C 1.484375 -9.914062 1.269531 -9.96875 1.0625 -10.03125 C 0.851562 -10.09375 0.644531 -10.164062 0.4375 -10.25 L 0.4375 -10.703125 L 3.578125 -10.703125 L 6.234375 -3.71875 L 6.75 -2.140625 L 6.765625 -2.140625 L 7.296875 -3.75 L 10.046875 -10.703125 L 12.8125 -10.703125 L 12.8125 -10.25 C 12.625 -10.164062 12.429688 -10.09375 12.234375 -10.03125 C 12.046875 -9.96875 11.847656 -9.914062 11.640625 -9.875 L 11.640625 -0.796875 C 11.859375 -0.753906 12.0625 -0.703125 12.25 -0.640625 C 12.4375 -0.585938 12.617188 -0.519531 12.796875 -0.4375 Z M 12.796875 0 "/></g></g></g><g fill="#0c0c0c" fill-opacity="1"><g transform="translate(209.196353, 76.827251)"><g><path d="M 6.265625 -2 C 6.265625 -1.78125 6.269531 -1.585938 6.28125 -1.421875 C 6.289062 -1.253906 6.300781 -1.082031 6.3125 -0.90625 L 7.359375 -0.75 L 7.359375 -0.421875 C 7.109375 -0.296875 6.828125 -0.179688 6.515625 -0.078125 C 6.203125 0.0234375 5.90625 0.101562 5.625 0.15625 L 5.234375 0.15625 C 5.140625 -0.0820312 5.082031 -0.34375 5.0625 -0.625 C 5.039062 -0.90625 5.023438 -1.210938 5.015625 -1.546875 L 4.9375 -1.546875 C 4.894531 -1.335938 4.8125 -1.128906 4.6875 -0.921875 C 4.570312 -0.710938 4.421875 -0.523438 4.234375 -0.359375 C 4.046875 -0.203125 3.820312 -0.0703125 3.5625 0.03125 C 3.3125 0.132812 3.023438 0.1875 2.703125 0.1875 C 2.078125 0.1875 1.566406 0 1.171875 -0.375 C 0.785156 -0.757812 0.59375 -1.253906 0.59375 -1.859375 C 0.59375 -2.328125 0.6875 -2.710938 0.875 -3.015625 C 1.0625 -3.316406 1.335938 -3.550781 1.703125 -3.71875 C 2.078125 -3.894531 2.53125 -4.019531 3.0625 -4.09375 C 3.601562 -4.175781 4.234375 -4.238281 4.953125 -4.28125 C 4.992188 -4.71875 5.003906 -5.109375 4.984375 -5.453125 C 4.972656 -5.804688 4.914062 -6.109375 4.8125 -6.359375 C 4.71875 -6.609375 4.578125 -6.800781 4.390625 -6.9375 C 4.203125 -7.082031 3.957031 -7.15625 3.65625 -7.15625 C 3.507812 -7.15625 3.347656 -7.144531 3.171875 -7.125 C 2.992188 -7.113281 2.816406 -7.070312 2.640625 -7 L 1.921875 -5.171875 L 1.53125 -5.171875 C 1.425781 -5.472656 1.332031 -5.785156 1.25 -6.109375 C 1.175781 -6.429688 1.128906 -6.753906 1.109375 -7.078125 C 1.503906 -7.304688 1.9375 -7.488281 2.40625 -7.625 C 2.882812 -7.757812 3.410156 -7.828125 3.984375 -7.828125 C 4.503906 -7.828125 4.921875 -7.75 5.234375 -7.59375 C 5.546875 -7.445312 5.78125 -7.253906 5.9375 -7.015625 C 6.101562 -6.785156 6.210938 -6.53125 6.265625 -6.25 C 6.316406 -5.96875 6.34375 -5.679688 6.34375 -5.390625 C 6.34375 -4.785156 6.328125 -4.195312 6.296875 -3.625 C 6.273438 -3.0625 6.265625 -2.519531 6.265625 -2 Z M 3.3125 -0.765625 C 3.570312 -0.765625 3.796875 -0.8125 3.984375 -0.90625 C 4.179688 -1.007812 4.34375 -1.132812 4.46875 -1.28125 C 4.601562 -1.425781 4.710938 -1.570312 4.796875 -1.71875 C 4.878906 -1.863281 4.9375 -1.988281 4.96875 -2.09375 L 4.96875 -3.703125 C 4.375 -3.703125 3.890625 -3.671875 3.515625 -3.609375 C 3.140625 -3.546875 2.84375 -3.445312 2.625 -3.3125 C 2.414062 -3.1875 2.269531 -3.019531 2.1875 -2.8125 C 2.101562 -2.613281 2.0625 -2.390625 2.0625 -2.140625 C 2.0625 -1.703125 2.171875 -1.363281 2.390625 -1.125 C 2.617188 -0.882812 2.925781 -0.765625 3.3125 -0.765625 Z M 3.3125 -0.765625 "/></g></g></g><g fill="#0c0c0c" fill-opacity="1"><g transform="translate(218.00808, 76.827251)"><g><path d="M 8.8125 0 L 5.53125 0 L 5.53125 -0.375 C 5.800781 -0.519531 6.101562 -0.644531 6.4375 -0.75 L 6.4375 -4.375 C 6.4375 -5.144531 6.320312 -5.753906 6.09375 -6.203125 C 5.875 -6.648438 5.46875 -6.875 4.875 -6.875 C 4.625 -6.875 4.382812 -6.828125 4.15625 -6.734375 C 3.9375 -6.640625 3.742188 -6.515625 3.578125 -6.359375 C 3.410156 -6.203125 3.265625 -6.023438 3.140625 -5.828125 C 3.023438 -5.628906 2.929688 -5.421875 2.859375 -5.203125 L 2.859375 -0.75 C 3.171875 -0.6875 3.476562 -0.5625 3.78125 -0.375 L 3.78125 0 L 0.46875 0 L 0.46875 -0.375 C 0.726562 -0.507812 1.066406 -0.632812 1.484375 -0.75 L 1.484375 -6.75 L 0.46875 -6.875 L 0.46875 -7.28125 C 0.738281 -7.382812 1.046875 -7.484375 1.390625 -7.578125 C 1.734375 -7.671875 2.09375 -7.753906 2.46875 -7.828125 L 2.859375 -7.828125 L 2.859375 -6.109375 L 2.875 -6.109375 C 3.082031 -6.578125 3.390625 -6.976562 3.796875 -7.3125 C 4.203125 -7.65625 4.6875 -7.828125 5.25 -7.828125 C 5.664062 -7.828125 6.03125 -7.773438 6.34375 -7.671875 C 6.664062 -7.578125 6.929688 -7.40625 7.140625 -7.15625 C 7.359375 -6.914062 7.523438 -6.585938 7.640625 -6.171875 C 7.753906 -5.765625 7.8125 -5.242188 7.8125 -4.609375 L 7.8125 -0.75 C 8.21875 -0.675781 8.550781 -0.550781 8.8125 -0.375 Z M 8.8125 0 "/></g></g></g><g fill="#0c0c0c" fill-opacity="1"><g transform="translate(228.178898, 76.827251)"><g><path d="M 6.265625 -2 C 6.265625 -1.78125 6.269531 -1.585938 6.28125 -1.421875 C 6.289062 -1.253906 6.300781 -1.082031 6.3125 -0.90625 L 7.359375 -0.75 L 7.359375 -0.421875 C 7.109375 -0.296875 6.828125 -0.179688 6.515625 -0.078125 C 6.203125 0.0234375 5.90625 0.101562 5.625 0.15625 L 5.234375 0.15625 C 5.140625 -0.0820312 5.082031 -0.34375 5.0625 -0.625 C 5.039062 -0.90625 5.023438 -1.210938 5.015625 -1.546875 L 4.9375 -1.546875 C 4.894531 -1.335938 4.8125 -1.128906 4.6875 -0.921875 C 4.570312 -0.710938 4.421875 -0.523438 4.234375 -0.359375 C 4.046875 -0.203125 3.820312 -0.0703125 3.5625 0.03125 C 3.3125 0.132812 3.023438 0.1875 2.703125 0.1875 C 2.078125 0.1875 1.566406 0 1.171875 -0.375 C 0.785156 -0.757812 0.59375 -1.253906 0.59375 -1.859375 C 0.59375 -2.328125 0.6875 -2.710938 0.875 -3.015625 C 1.0625 -3.316406 1.335938 -3.550781 1.703125 -3.71875 C 2.078125 -3.894531 2.53125 -4.019531 3.0625 -4.09375 C 3.601562 -4.175781 4.234375 -4.238281 4.953125 -4.28125 C 4.992188 -4.71875 5.003906 -5.109375 4.984375 -5.453125 C 4.972656 -5.804688 4.914062 -6.109375 4.8125 -6.359375 C 4.71875 -6.609375 4.578125 -6.800781 4.390625 -6.9375 C 4.203125 -7.082031 3.957031 -7.15625 3.65625 -7.15625 C 3.507812 -7.15625 3.347656 -7.144531 3.171875 -7.125 C 2.992188 -7.113281 2.816406 -7.070312 2.640625 -7 L 1.921875 -5.171875 L 1.53125 -5.171875 C 1.425781 -5.472656 1.332031 -5.785156 1.25 -6.109375 C 1.175781 -6.429688 1.128906 -6.753906 1.109375 -7.078125 C 1.503906 -7.304688 1.9375 -7.488281 2.40625 -7.625 C 2.882812 -7.757812 3.410156 -7.828125 3.984375 -7.828125 C 4.503906 -7.828125 4.921875 -7.75 5.234375 -7.59375 C 5.546875 -7.445312 5.78125 -7.253906 5.9375 -7.015625 C 6.101562 -6.785156 6.210938 -6.53125 6.265625 -6.25 C 6.316406 -5.96875 6.34375 -5.679688 6.34375 -5.390625 C 6.34375 -4.785156 6.328125 -4.195312 6.296875 -3.625 C 6.273438 -3.0625 6.265625 -2.519531 6.265625 -2 Z M 3.3125 -0.765625 C 3.570312 -0.765625 3.796875 -0.8125 3.984375 -0.90625 C 4.179688 -1.007812 4.34375 -1.132812 4.46875 -1.28125 C 4.601562 -1.425781 4.710938 -1.570312 4.796875 -1.71875 C 4.878906 -1.863281 4.9375 -1.988281 4.96875 -2.09375 L 4.96875 -3.703125 C 4.375 -3.703125 3.890625 -3.671875 3.515625 -3.609375 C 3.140625 -3.546875 2.84375 -3.445312 2.625 -3.3125 C 2.414062 -3.1875 2.269531 -3.019531 2.1875 -2.8125 C 2.101562 -2.613281 2.0625 -2.390625 2.0625 -2.140625 C 2.0625 -1.703125 2.171875 -1.363281 2.390625 -1.125 C 2.617188 -0.882812 2.925781 -0.765625 3.3125 -0.765625 Z M 3.3125 -0.765625 "/></g></g></g><g fill="#0c0c0c" fill-opacity="1"><g transform="translate(236.990624, 76.827251)"><g><path d="M 3.78125 -7.828125 C 4.320312 -7.828125 4.78125 -7.769531 5.15625 -7.65625 C 5.539062 -7.550781 5.859375 -7.390625 6.109375 -7.171875 C 6.710938 -7.578125 7.335938 -7.867188 7.984375 -8.046875 C 8.066406 -7.941406 8.125 -7.804688 8.15625 -7.640625 C 8.195312 -7.472656 8.21875 -7.320312 8.21875 -7.1875 L 8.015625 -6.8125 L 6.421875 -6.8125 C 6.671875 -6.445312 6.796875 -5.960938 6.796875 -5.359375 C 6.796875 -4.628906 6.535156 -4.035156 6.015625 -3.578125 C 5.503906 -3.117188 4.757812 -2.890625 3.78125 -2.890625 C 3.582031 -2.890625 3.421875 -2.894531 3.296875 -2.90625 C 3.179688 -2.914062 3.046875 -2.929688 2.890625 -2.953125 C 2.835938 -2.859375 2.773438 -2.753906 2.703125 -2.640625 C 2.640625 -2.523438 2.609375 -2.410156 2.609375 -2.296875 C 2.609375 -2.085938 2.722656 -1.925781 2.953125 -1.8125 C 3.191406 -1.695312 3.488281 -1.59375 3.84375 -1.5 C 4.195312 -1.40625 4.578125 -1.304688 4.984375 -1.203125 C 5.398438 -1.109375 5.785156 -0.976562 6.140625 -0.8125 C 6.492188 -0.644531 6.789062 -0.425781 7.03125 -0.15625 C 7.269531 0.113281 7.394531 0.460938 7.40625 0.890625 C 7.414062 1.253906 7.332031 1.582031 7.15625 1.875 C 6.976562 2.175781 6.726562 2.425781 6.40625 2.625 C 6.09375 2.820312 5.710938 2.972656 5.265625 3.078125 C 4.828125 3.179688 4.34375 3.234375 3.8125 3.234375 C 2.707031 3.234375 1.867188 3.046875 1.296875 2.671875 C 0.734375 2.296875 0.453125 1.820312 0.453125 1.25 C 0.453125 0.976562 0.492188 0.738281 0.578125 0.53125 C 0.671875 0.332031 0.796875 0.15625 0.953125 0 C 1.117188 -0.15625 1.320312 -0.289062 1.5625 -0.40625 C 1.8125 -0.519531 2.097656 -0.628906 2.421875 -0.734375 C 2.191406 -0.835938 2.003906 -0.976562 1.859375 -1.15625 C 1.710938 -1.332031 1.640625 -1.546875 1.640625 -1.796875 C 1.640625 -2.035156 1.738281 -2.269531 1.9375 -2.5 C 2.132812 -2.726562 2.332031 -2.910156 2.53125 -3.046875 C 1.957031 -3.191406 1.515625 -3.476562 1.203125 -3.90625 C 0.890625 -4.332031 0.734375 -4.816406 0.734375 -5.359375 C 0.734375 -5.710938 0.796875 -6.035156 0.921875 -6.328125 C 1.054688 -6.628906 1.25 -6.890625 1.5 -7.109375 C 1.757812 -7.335938 2.078125 -7.515625 2.453125 -7.640625 C 2.835938 -7.765625 3.28125 -7.828125 3.78125 -7.828125 Z M 6.03125 1.234375 C 6.03125 0.910156 5.921875 0.648438 5.703125 0.453125 C 5.484375 0.265625 5.210938 0.109375 4.890625 -0.015625 C 4.566406 -0.140625 4.210938 -0.238281 3.828125 -0.3125 C 3.453125 -0.394531 3.101562 -0.488281 2.78125 -0.59375 C 2.394531 -0.363281 2.140625 -0.117188 2.015625 0.140625 C 1.890625 0.398438 1.828125 0.671875 1.828125 0.953125 C 1.828125 1.484375 2.019531 1.882812 2.40625 2.15625 C 2.800781 2.425781 3.363281 2.5625 4.09375 2.5625 C 4.46875 2.5625 4.78125 2.523438 5.03125 2.453125 C 5.28125 2.390625 5.476562 2.296875 5.625 2.171875 C 5.78125 2.054688 5.882812 1.914062 5.9375 1.75 C 6 1.59375 6.03125 1.421875 6.03125 1.234375 Z M 2.109375 -5.359375 C 2.109375 -5.117188 2.132812 -4.890625 2.1875 -4.671875 C 2.25 -4.453125 2.34375 -4.257812 2.46875 -4.09375 C 2.59375 -3.925781 2.757812 -3.796875 2.96875 -3.703125 C 3.1875 -3.609375 3.457031 -3.5625 3.78125 -3.5625 C 4.363281 -3.5625 4.78125 -3.734375 5.03125 -4.078125 C 5.289062 -4.421875 5.421875 -4.847656 5.421875 -5.359375 C 5.421875 -5.910156 5.296875 -6.347656 5.046875 -6.671875 C 4.796875 -6.992188 4.375 -7.15625 3.78125 -7.15625 C 3.15625 -7.15625 2.71875 -7 2.46875 -6.6875 C 2.226562 -6.375 2.109375 -5.929688 2.109375 -5.359375 Z M 2.109375 -5.359375 "/></g></g></g><g fill="#0c0c0c" fill-opacity="1"><g transform="translate(246.123039, 76.827251)"><g><path d="M 6.8125 -1.0625 C 6.726562 -0.894531 6.597656 -0.734375 6.421875 -0.578125 C 6.253906 -0.421875 6.054688 -0.285156 5.828125 -0.171875 C 5.609375 -0.0664062 5.363281 0.015625 5.09375 0.078125 C 4.832031 0.148438 4.566406 0.1875 4.296875 0.1875 C 3.691406 0.1875 3.160156 0.09375 2.703125 -0.09375 C 2.242188 -0.28125 1.859375 -0.550781 1.546875 -0.90625 C 1.242188 -1.257812 1.015625 -1.679688 0.859375 -2.171875 C 0.703125 -2.660156 0.625 -3.207031 0.625 -3.8125 C 0.625 -5.125 0.925781 -6.117188 1.53125 -6.796875 C 2.132812 -7.484375 2.984375 -7.828125 4.078125 -7.828125 C 4.429688 -7.828125 4.78125 -7.773438 5.125 -7.671875 C 5.476562 -7.578125 5.789062 -7.414062 6.0625 -7.1875 C 6.332031 -6.96875 6.550781 -6.671875 6.71875 -6.296875 C 6.882812 -5.929688 6.96875 -5.472656 6.96875 -4.921875 C 6.96875 -4.742188 6.957031 -4.566406 6.9375 -4.390625 C 6.925781 -4.210938 6.898438 -4.019531 6.859375 -3.8125 L 2.09375 -3.8125 C 2.09375 -3.382812 2.144531 -2.984375 2.25 -2.609375 C 2.363281 -2.242188 2.523438 -1.921875 2.734375 -1.640625 C 2.953125 -1.367188 3.222656 -1.15625 3.546875 -1 C 3.867188 -0.84375 4.25 -0.765625 4.6875 -0.765625 C 5.039062 -0.765625 5.398438 -0.8125 5.765625 -0.90625 C 6.140625 -1.007812 6.414062 -1.144531 6.59375 -1.3125 Z M 4.015625 -7.15625 C 3.429688 -7.15625 2.988281 -6.957031 2.6875 -6.5625 C 2.382812 -6.164062 2.203125 -5.476562 2.140625 -4.5 L 5.5 -4.5 C 5.507812 -4.582031 5.515625 -4.664062 5.515625 -4.75 C 5.523438 -4.84375 5.53125 -4.929688 5.53125 -5.015625 C 5.53125 -5.660156 5.40625 -6.175781 5.15625 -6.5625 C 4.914062 -6.957031 4.535156 -7.15625 4.015625 -7.15625 Z M 4.015625 -7.15625 "/></g></g></g><g fill="#0c0c0c" fill-opacity="1"><g transform="translate(254.904223, 76.827251)"><g><path d="M 8.375 0 L 5.109375 0 L 5.109375 -0.375 C 5.203125 -0.4375 5.320312 -0.5 5.46875 -0.5625 C 5.625 -0.632812 5.800781 -0.695312 6 -0.75 L 6 -4.28125 C 6 -4.6875 5.984375 -5.050781 5.953125 -5.375 C 5.921875 -5.707031 5.851562 -5.984375 5.75 -6.203125 C 5.65625 -6.421875 5.515625 -6.585938 5.328125 -6.703125 C 5.148438 -6.816406 4.910156 -6.875 4.609375 -6.875 C 4.390625 -6.875 4.1875 -6.828125 4 -6.734375 C 3.8125 -6.640625 3.640625 -6.515625 3.484375 -6.359375 C 3.335938 -6.210938 3.210938 -6.039062 3.109375 -5.84375 C 3.003906 -5.65625 2.921875 -5.453125 2.859375 -5.234375 L 2.859375 -0.75 C 3.023438 -0.695312 3.179688 -0.640625 3.328125 -0.578125 C 3.472656 -0.523438 3.617188 -0.457031 3.765625 -0.375 L 3.765625 0 L 0.46875 0 L 0.46875 -0.375 C 0.613281 -0.445312 0.769531 -0.515625 0.9375 -0.578125 C 1.113281 -0.640625 1.296875 -0.695312 1.484375 -0.75 L 1.484375 -6.75 L 0.46875 -6.875 L 0.46875 -7.28125 C 0.800781 -7.414062 1.132812 -7.523438 1.46875 -7.609375 C 1.8125 -7.703125 2.144531 -7.773438 2.46875 -7.828125 L 2.859375 -7.828125 L 2.859375 -6.09375 L 2.875 -6.09375 C 3.039062 -6.570312 3.316406 -6.976562 3.703125 -7.3125 C 4.097656 -7.65625 4.585938 -7.828125 5.171875 -7.828125 C 5.410156 -7.828125 5.640625 -7.800781 5.859375 -7.75 C 6.085938 -7.695312 6.296875 -7.601562 6.484375 -7.46875 C 6.679688 -7.332031 6.847656 -7.140625 6.984375 -6.890625 C 7.117188 -6.648438 7.21875 -6.332031 7.28125 -5.9375 C 7.457031 -6.5 7.75 -6.953125 8.15625 -7.296875 C 8.5625 -7.648438 9.070312 -7.828125 9.6875 -7.828125 C 10.0625 -7.828125 10.390625 -7.773438 10.671875 -7.671875 C 10.953125 -7.578125 11.179688 -7.40625 11.359375 -7.15625 C 11.546875 -6.914062 11.679688 -6.585938 11.765625 -6.171875 C 11.859375 -5.753906 11.90625 -5.222656 11.90625 -4.578125 L 11.90625 -0.75 C 12.25 -0.6875 12.582031 -0.5625 12.90625 -0.375 L 12.90625 0 L 9.625 0 L 9.625 -0.375 C 9.925781 -0.539062 10.226562 -0.664062 10.53125 -0.75 L 10.53125 -4.546875 C 10.53125 -4.921875 10.507812 -5.25 10.46875 -5.53125 C 10.4375 -5.8125 10.367188 -6.050781 10.265625 -6.25 C 10.160156 -6.457031 10.015625 -6.613281 9.828125 -6.71875 C 9.648438 -6.820312 9.410156 -6.875 9.109375 -6.875 C 8.617188 -6.875 8.238281 -6.707031 7.96875 -6.375 C 7.695312 -6.039062 7.5 -5.613281 7.375 -5.09375 L 7.375 -0.75 C 7.738281 -0.644531 8.070312 -0.519531 8.375 -0.375 Z M 8.375 0 "/></g></g></g><g fill="#0c0c0c" fill-opacity="1"><g transform="translate(269.182892, 76.827251)"><g><path d="M 6.8125 -1.0625 C 6.726562 -0.894531 6.597656 -0.734375 6.421875 -0.578125 C 6.253906 -0.421875 6.054688 -0.285156 5.828125 -0.171875 C 5.609375 -0.0664062 5.363281 0.015625 5.09375 0.078125 C 4.832031 0.148438 4.566406 0.1875 4.296875 0.1875 C 3.691406 0.1875 3.160156 0.09375 2.703125 -0.09375 C 2.242188 -0.28125 1.859375 -0.550781 1.546875 -0.90625 C 1.242188 -1.257812 1.015625 -1.679688 0.859375 -2.171875 C 0.703125 -2.660156 0.625 -3.207031 0.625 -3.8125 C 0.625 -5.125 0.925781 -6.117188 1.53125 -6.796875 C 2.132812 -7.484375 2.984375 -7.828125 4.078125 -7.828125 C 4.429688 -7.828125 4.78125 -7.773438 5.125 -7.671875 C 5.476562 -7.578125 5.789062 -7.414062 6.0625 -7.1875 C 6.332031 -6.96875 6.550781 -6.671875 6.71875 -6.296875 C 6.882812 -5.929688 6.96875 -5.472656 6.96875 -4.921875 C 6.96875 -4.742188 6.957031 -4.566406 6.9375 -4.390625 C 6.925781 -4.210938 6.898438 -4.019531 6.859375 -3.8125 L 2.09375 -3.8125 C 2.09375 -3.382812 2.144531 -2.984375 2.25 -2.609375 C 2.363281 -2.242188 2.523438 -1.921875 2.734375 -1.640625 C 2.953125 -1.367188 3.222656 -1.15625 3.546875 -1 C 3.867188 -0.84375 4.25 -0.765625 4.6875 -0.765625 C 5.039062 -0.765625 5.398438 -0.8125 5.765625 -0.90625 C 6.140625 -1.007812 6.414062 -1.144531 6.59375 -1.3125 Z M 4.015625 -7.15625 C 3.429688 -7.15625 2.988281 -6.957031 2.6875 -6.5625 C 2.382812 -6.164062 2.203125 -5.476562 2.140625 -4.5 L 5.5 -4.5 C 5.507812 -4.582031 5.515625 -4.664062 5.515625 -4.75 C 5.523438 -4.84375 5.53125 -4.929688 5.53125 -5.015625 C 5.53125 -5.660156 5.40625 -6.175781 5.15625 -6.5625 C 4.914062 -6.957031 4.535156 -7.15625 4.015625 -7.15625 Z M 4.015625 -7.15625 "/></g></g></g><g fill="#0c0c0c" fill-opacity="1"><g transform="translate(277.964065, 76.827251)"><g><path d="M 8.8125 0 L 5.53125 0 L 5.53125 -0.375 C 5.800781 -0.519531 6.101562 -0.644531 6.4375 -0.75 L 6.4375 -4.375 C 6.4375 -5.144531 6.320312 -5.753906 6.09375 -6.203125 C 5.875 -6.648438 5.46875 -6.875 4.875 -6.875 C 4.625 -6.875 4.382812 -6.828125 4.15625 -6.734375 C 3.9375 -6.640625 3.742188 -6.515625 3.578125 -6.359375 C 3.410156 -6.203125 3.265625 -6.023438 3.140625 -5.828125 C 3.023438 -5.628906 2.929688 -5.421875 2.859375 -5.203125 L 2.859375 -0.75 C 3.171875 -0.6875 3.476562 -0.5625 3.78125 -0.375 L 3.78125 0 L 0.46875 0 L 0.46875 -0.375 C 0.726562 -0.507812 1.066406 -0.632812 1.484375 -0.75 L 1.484375 -6.75 L 0.46875 -6.875 L 0.46875 -7.28125 C 0.738281 -7.382812 1.046875 -7.484375 1.390625 -7.578125 C 1.734375 -7.671875 2.09375 -7.753906 2.46875 -7.828125 L 2.859375 -7.828125 L 2.859375 -6.109375 L 2.875 -6.109375 C 3.082031 -6.578125 3.390625 -6.976562 3.796875 -7.3125 C 4.203125 -7.65625 4.6875 -7.828125 5.25 -7.828125 C 5.664062 -7.828125 6.03125 -7.773438 6.34375 -7.671875 C 6.664062 -7.578125 6.929688 -7.40625 7.140625 -7.15625 C 7.359375 -6.914062 7.523438 -6.585938 7.640625 -6.171875 C 7.753906 -5.765625 7.8125 -5.242188 7.8125 -4.609375 L 7.8125 -0.75 C 8.21875 -0.675781 8.550781 -0.550781 8.8125 -0.375 Z M 8.8125 0 "/></g></g></g><g fill="#0c0c0c" fill-opacity="1"><g transform="translate(288.134883, 76.827251)"><g><path d="M 0.234375 -7.28125 C 0.617188 -7.519531 1.023438 -7.691406 1.453125 -7.796875 L 1.453125 -9.09375 C 1.585938 -9.207031 1.742188 -9.304688 1.921875 -9.390625 C 2.097656 -9.472656 2.269531 -9.554688 2.4375 -9.640625 L 2.828125 -9.640625 L 2.828125 -7.640625 L 5.125 -7.640625 L 5.125 -6.875 L 2.828125 -6.875 L 2.828125 -2.4375 C 2.828125 -1.832031 2.921875 -1.398438 3.109375 -1.140625 C 3.304688 -0.890625 3.597656 -0.765625 3.984375 -0.765625 C 4.171875 -0.765625 4.398438 -0.773438 4.671875 -0.796875 C 4.953125 -0.828125 5.1875 -0.878906 5.375 -0.953125 L 5.484375 -0.71875 C 5.398438 -0.625 5.285156 -0.523438 5.140625 -0.421875 C 4.992188 -0.328125 4.828125 -0.234375 4.640625 -0.140625 C 4.453125 -0.046875 4.242188 0.03125 4.015625 0.09375 C 3.796875 0.15625 3.566406 0.1875 3.328125 0.1875 C 2.722656 0.1875 2.257812 0.015625 1.9375 -0.328125 C 1.613281 -0.679688 1.453125 -1.242188 1.453125 -2.015625 L 1.453125 -6.875 L 0.234375 -6.875 Z M 0.234375 -7.28125 "/></g></g></g></svg>