<svg xmlns="http://www.w3.org/2000/svg" xmlns:xlink="http://www.w3.org/1999/xlink" width="400" zoomAndPan="magnify" viewBox="0 0 300 299.999988" height="400" preserveAspectRatio="xMidYMid meet" version="1.0"><defs><clipPath id="1aaa1efe4e"><path d="M 1.125 0 L 291 0 L 291 281 L 1.125 281 Z M 1.125 0 " clip-rule="nonzero"/></clipPath><clipPath id="0bbdb153ca"><path d="M 26 102 L 298.875 102 L 298.875 300 L 26 300 Z M 26 102 " clip-rule="nonzero"/></clipPath></defs><rect x="-30" width="360" fill="#ffffff" y="-29.999999" height="359.999986" fill-opacity="1"/><rect x="-30" width="360" fill="#ffffff" y="-29.999999" height="359.999986" fill-opacity="1"/><path fill="#4878c5" d="M 112.851562 249.953125 L 148.351562 227.277344 L 148.351562 93.460938 L 112.851562 120.082031 L 112.851562 249.953125 " fill-opacity="1" fill-rule="nonzero"/><path fill="#0c2973" d="M 56.417969 226.089844 L 91.917969 255.621094 L 91.917969 124.636719 L 56.417969 151.941406 L 56.417969 226.089844 " fill-opacity="1" fill-rule="nonzero"/><path fill="#d0e4fa" d="M 169.289062 87.316406 L 169.289062 205.363281 L 204.785156 177.316406 L 204.785156 56.371094 L 169.289062 87.316406 " fill-opacity="1" fill-rule="nonzero"/><g clip-path="url(#1aaa1efe4e)"><path fill="#0c0c0c" d="M 61.765625 250.167969 C 34.21875 225.589844 16.871094 189.820312 16.871094 150 C 16.871094 75.882812 76.957031 15.800781 151.070312 15.800781 C 209.613281 15.800781 259.394531 53.277344 277.738281 105.550781 L 290.734375 95.28125 C 268.871094 39.523438 214.582031 0.0390625 151.070312 0.0390625 C 68.253906 0.0390625 1.117188 67.179688 1.117188 150 C 1.117188 206.132812 31.957031 255.054688 77.613281 280.761719 L 61.765625 250.167969 " fill-opacity="1" fill-rule="nonzero"/></g><g clip-path="url(#0bbdb153ca)"><path fill="#04134c" d="M 298.855469 102.078125 L 97.207031 261.40625 L 26.066406 171.371094 L 92.6875 299.957031 L 298.855469 102.078125 " fill-opacity="1" fill-rule="nonzero"/></g></svg>