<svg xmlns="http://www.w3.org/2000/svg" xmlns:xlink="http://www.w3.org/1999/xlink" width="400" zoomAndPan="magnify" viewBox="0 0 300 67.499998" height="90" preserveAspectRatio="xMidYMid meet" version="1.0"><defs><g/><clipPath id="46d925a6d0"><path d="M 2.457031 0.289062 L 67 0.289062 L 67 63 L 2.457031 63 Z M 2.457031 0.289062 " clip-rule="nonzero"/></clipPath><clipPath id="c20d829922"><path d="M 7 22 L 68.824219 22 L 68.824219 66.652344 L 7 66.652344 Z M 7 22 " clip-rule="nonzero"/></clipPath></defs><path fill="#4878c5" d="M 27.195312 55.628906 L 35.054688 50.609375 L 35.054688 20.980469 L 27.195312 26.875 L 27.195312 55.628906 " fill-opacity="1" fill-rule="nonzero"/><path fill="#0c2973" d="M 14.699219 50.347656 L 22.558594 56.882812 L 22.558594 27.882812 L 14.699219 33.929688 L 14.699219 50.347656 " fill-opacity="1" fill-rule="nonzero"/><path fill="#d0e4fa" d="M 39.6875 19.621094 L 39.6875 45.757812 L 47.546875 39.546875 L 47.546875 12.769531 L 39.6875 19.621094 " fill-opacity="1" fill-rule="nonzero"/><g clip-path="url(#46d925a6d0)"><path fill="#0c0c0c" d="M 15.882812 55.675781 C 9.785156 50.234375 5.945312 42.316406 5.945312 33.5 C 5.945312 17.089844 19.246094 3.789062 35.65625 3.789062 C 48.617188 3.789062 59.636719 12.085938 63.699219 23.660156 L 66.578125 21.386719 C 61.738281 9.039062 49.71875 0.300781 35.65625 0.300781 C 17.320312 0.300781 2.457031 15.164062 2.457031 33.5 C 2.457031 45.925781 9.285156 56.757812 19.394531 62.449219 L 15.882812 55.675781 " fill-opacity="1" fill-rule="nonzero"/></g><g clip-path="url(#c20d829922)"><path fill="#04134c" d="M 68.375 22.890625 L 23.730469 58.164062 L 7.980469 38.230469 L 22.730469 66.699219 L 68.375 22.890625 " fill-opacity="1" fill-rule="nonzero"/></g><g fill="#f3f3f3" fill-opacity="1"><g transform="translate(69.076164, 54.684626)"><g><path d="M 41.171875 -18.609375 C 41.171875 -12.890625 39.332031 -8.179688 35.65625 -4.484375 C 31.976562 -0.796875 27.273438 1.046875 21.546875 1.046875 C 15.828125 1.046875 11.128906 -0.785156 7.453125 -4.453125 C 3.773438 -8.128906 1.9375 -12.832031 1.9375 -18.5625 C 1.9375 -24.320312 3.789062 -29.046875 7.5 -32.734375 C 11.21875 -36.429688 15.976562 -38.28125 21.78125 -38.28125 C 27.351562 -38.28125 31.976562 -36.414062 35.65625 -32.6875 C 39.332031 -28.957031 41.171875 -24.265625 41.171875 -18.609375 Z M 31.359375 -18.234375 C 31.359375 -23.992188 30.515625 -28.46875 28.828125 -31.65625 C 27.148438 -34.851562 24.78125 -36.453125 21.71875 -36.453125 C 18.46875 -36.453125 15.992188 -34.878906 14.296875 -31.734375 C 12.597656 -28.597656 11.75 -24.039062 11.75 -18.0625 C 11.75 -12.445312 12.585938 -8.160156 14.265625 -5.203125 C 15.941406 -2.253906 18.367188 -0.78125 21.546875 -0.78125 C 24.722656 -0.78125 27.148438 -2.265625 28.828125 -5.234375 C 30.515625 -8.210938 31.359375 -12.546875 31.359375 -18.234375 Z M 31.359375 -18.234375 "/></g></g></g><g fill="#f3f3f3" fill-opacity="1"><g transform="translate(112.18168, 54.684626)"><g><path d="M 33.25 -27.375 C 33.25 -25.226562 32.644531 -23.34375 31.4375 -21.71875 C 30.238281 -20.09375 28.53125 -18.851562 26.3125 -18 C 25.09375 -17.519531 23.765625 -17.207031 22.328125 -17.0625 C 20.890625 -16.914062 18.285156 -16.820312 14.515625 -16.78125 L 14.515625 -6.484375 C 14.515625 -4.453125 14.78125 -3.164062 15.3125 -2.625 C 15.851562 -2.09375 17.210938 -1.679688 19.390625 -1.390625 L 19.390625 0 L 0.890625 0 L 0.890625 -1.390625 C 1.703125 -1.535156 2.144531 -1.609375 2.21875 -1.609375 C 3.507812 -1.753906 4.382812 -2.164062 4.84375 -2.84375 C 5.3125 -3.53125 5.546875 -4.742188 5.546875 -6.484375 L 5.546875 -30.96875 C 5.546875 -32.925781 5.25 -34.226562 4.65625 -34.875 C 4.0625 -35.519531 2.804688 -35.914062 0.890625 -36.0625 L 0.890625 -37.453125 L 18.734375 -37.453125 C 23.347656 -37.453125 26.921875 -36.570312 29.453125 -34.8125 C 31.984375 -33.0625 33.25 -30.582031 33.25 -27.375 Z M 23.71875 -27.09375 C 23.71875 -30.082031 23.21875 -32.234375 22.21875 -33.546875 C 21.21875 -34.859375 19.570312 -35.515625 17.28125 -35.515625 C 15.4375 -35.515625 14.515625 -34.867188 14.515625 -33.578125 L 14.515625 -18.734375 C 18.054688 -18.734375 20.421875 -19.226562 21.609375 -20.21875 C 23.015625 -21.476562 23.71875 -23.769531 23.71875 -27.09375 Z M 23.71875 -27.09375 "/></g></g></g><g fill="#f3f3f3" fill-opacity="1"><g transform="translate(146.034468, 54.684626)"><g><path d="M 35.234375 -26.3125 L 33.625 -26.3125 C 33.144531 -29.601562 32.101562 -31.957031 30.5 -33.375 C 28.894531 -34.800781 26.394531 -35.570312 23 -35.6875 L 23 -6.484375 C 23 -4.378906 23.300781 -3.046875 23.90625 -2.484375 C 24.519531 -1.929688 26.023438 -1.566406 28.421875 -1.390625 L 28.421875 0 L 8.640625 0 L 8.640625 -1.390625 C 11.003906 -1.566406 12.488281 -1.941406 13.09375 -2.515625 C 13.707031 -3.085938 14.015625 -4.410156 14.015625 -6.484375 L 14.015625 -35.6875 C 10.578125 -35.570312 8.054688 -34.800781 6.453125 -33.375 C 4.847656 -31.957031 3.804688 -29.601562 3.328125 -26.3125 L 1.71875 -26.3125 L 1.890625 -37.453125 L 35.125 -37.453125 Z M 35.234375 -26.3125 "/></g></g></g><g fill="#f3f3f3" fill-opacity="1"><g transform="translate(182.989965, 54.684626)"><g><path d="M 20.5 0 L 1.109375 0 L 1.109375 -1.390625 C 3.171875 -1.566406 4.546875 -1.914062 5.234375 -2.4375 C 5.921875 -2.957031 6.265625 -3.914062 6.265625 -5.3125 L 6.265625 -32.140625 C 6.265625 -33.535156 5.898438 -34.5 5.171875 -35.03125 C 4.453125 -35.570312 3.097656 -35.914062 1.109375 -36.0625 L 1.109375 -37.453125 L 20.5 -37.453125 L 20.5 -36.0625 C 18.46875 -35.988281 17.082031 -35.675781 16.34375 -35.125 C 15.601562 -34.570312 15.234375 -33.578125 15.234375 -32.140625 L 15.234375 -5.3125 C 15.234375 -3.875 15.582031 -2.894531 16.28125 -2.375 C 16.988281 -1.863281 18.394531 -1.535156 20.5 -1.390625 Z M 20.5 0 "/></g></g></g><g fill="#f3f3f3" fill-opacity="1"><g transform="translate(204.542717, 54.684626)"><g><path d="M 51.03125 0 L 32.640625 0 L 32.640625 -1.390625 C 34.703125 -1.566406 36.035156 -1.914062 36.640625 -2.4375 C 37.253906 -2.957031 37.5625 -3.992188 37.5625 -5.546875 L 37.5625 -33.75 L 23.609375 0 L 22.109375 0 L 8.140625 -32.90625 L 8.140625 -6.875 C 8.140625 -4.800781 8.507812 -3.40625 9.25 -2.6875 C 9.988281 -1.96875 11.484375 -1.535156 13.734375 -1.390625 L 13.734375 0 L 0.78125 0 L 0.78125 -1.390625 C 2.914062 -1.609375 4.285156 -1.984375 4.890625 -2.515625 C 5.503906 -3.054688 5.8125 -4.15625 5.8125 -5.8125 L 5.8125 -32.140625 C 5.8125 -33.578125 5.5 -34.550781 4.875 -35.0625 C 4.25 -35.582031 2.921875 -35.914062 0.890625 -36.0625 L 0.890625 -37.453125 L 14.90625 -37.453125 L 25.984375 -11.296875 L 37.0625 -37.453125 L 51.03125 -37.453125 L 51.03125 -36.0625 C 49 -35.914062 47.675781 -35.53125 47.0625 -34.90625 C 46.457031 -34.28125 46.15625 -32.96875 46.15625 -30.96875 L 46.15625 -6.484375 C 46.15625 -4.523438 46.429688 -3.25 46.984375 -2.65625 C 47.535156 -2.0625 48.882812 -1.640625 51.03125 -1.390625 Z M 51.03125 0 "/></g></g></g><g fill="#f3f3f3" fill-opacity="1"><g transform="translate(256.845548, 54.684626)"><g><path d="M 38.171875 0 L 20.21875 0 L 20.21875 -1.390625 L 22 -1.546875 C 22.957031 -1.585938 23.640625 -1.742188 24.046875 -2.015625 C 24.453125 -2.296875 24.65625 -2.75 24.65625 -3.375 C 24.65625 -4.445312 23.804688 -6.960938 22.109375 -10.921875 L 9.640625 -10.921875 L 8.8125 -8.703125 C 7.738281 -6.035156 7.203125 -4.351562 7.203125 -3.65625 C 7.203125 -2.957031 7.550781 -2.429688 8.25 -2.078125 C 8.957031 -1.722656 10.125 -1.492188 11.75 -1.390625 L 11.75 0 L 0.5 0 L 0.5 -1.390625 C 1.832031 -1.640625 2.8125 -2.132812 3.4375 -2.875 C 4.0625 -3.613281 4.890625 -5.28125 5.921875 -7.875 L 18.234375 -38.234375 L 19.78125 -38.234375 L 32.140625 -9.09375 C 33.617188 -5.613281 34.6875 -3.457031 35.34375 -2.625 C 36.007812 -1.800781 36.953125 -1.390625 38.171875 -1.390625 Z M 21.28125 -13.078125 L 15.6875 -26.546875 L 10.46875 -13.078125 Z M 21.28125 -13.078125 "/></g></g></g></svg>